<?xml version="1.0" encoding="iso-8859-1"?>
<!-- Generator: Adobe Illustrator 19.0.0, SVG Export Plug-In . SVG Version: 6.00 Build 0)  -->
<svg version="1.1" id="Layer_1" xmlns="http://www.w3.org/2000/svg" xmlns:xlink="http://www.w3.org/1999/xlink" x="0px" y="0px"
	 viewBox="0 0 512.001 512.001" style="enable-background:new 0 0 512.001 512.001;" xml:space="preserve">
<g>
	<g>
		<g>
			<path d="M136.534,187.735c0,65.638,57.506,84.668,85.811,92.083c1.391,11.947,6.921,36.881,28.919,51.55
				c1.434,0.956,3.089,1.434,4.736,1.434c1.647,0,3.302-0.478,4.736-1.434c21.999-14.669,27.529-39.603,28.919-51.55
				c28.305-7.415,85.811-26.445,85.811-92.083c0-63.249-62.012-102.4-119.467-102.4C198.546,85.335,136.534,124.486,136.534,187.735
				z M256.001,313.482c-12.629-11.418-15.915-28.544-16.768-36.318c3.081-1.784,8.644-4.096,16.768-4.096
				c8.166,0,13.739,2.33,16.794,4.096C271.975,284.929,268.749,302.013,256.001,313.482z M256.001,102.401
				c49.246,0,102.4,32.623,102.4,85.333c0,48.828-37.24,66.116-74.948,76.023c-4.872-3.277-13.935-7.757-27.452-7.757
				c-13.508,0-22.571,4.48-27.452,7.757c-37.709-9.907-74.948-27.196-74.948-76.023
				C153.601,135.024,206.755,102.401,256.001,102.401z"/>
			<path d="M209.067,230.401c7.057,0,12.8-5.743,12.8-12.8s-5.743-12.8-12.8-12.8s-12.8,5.743-12.8,12.8
				S202.01,230.401,209.067,230.401z"/>
			<path d="M302.934,230.401c7.057,0,12.8-5.743,12.8-12.8s-5.743-12.8-12.8-12.8c-7.057,0-12.8,5.743-12.8,12.8
				S295.877,230.401,302.934,230.401z"/>
			<path d="M81.025,126.832c17.212,10.061,43.537,17.596,44.646,17.911c0.777,0.222,1.562,0.324,2.33,0.324
				c3.721,0,7.142-2.449,8.209-6.204c1.289-4.531-1.34-9.25-5.879-10.539c-0.247-0.068-25.37-7.262-40.687-16.222
				C66.032,98.297,34.851,75.137,21.547,28.878C51.38,49.93,112.564,88.219,169.831,93.825c4.762,0.461,8.875-2.978,9.327-7.654
				c0.461-4.693-2.97-8.866-7.654-9.327C98.706,69.71,14.738,2.57,13.893,1.896c-2.722-2.202-6.528-2.509-9.574-0.777
				C1.264,2.851-0.409,6.273,0.086,9.746C9.831,77.979,50.953,109.254,81.025,126.832z"/>
			<path d="M71.945,186.216c19.038,13.184,39.919,14.771,40.798,14.831c0.196,0.017,0.401,0.026,0.597,0.026
				c4.446,0,8.192-3.447,8.508-7.945c0.324-4.702-3.226-8.781-7.919-9.105c-0.171-0.017-17.041-1.289-32.427-11.947
				c-28.834-19.012-43.904-39.987-47.445-66.022c-0.64-4.676-4.941-7.979-9.609-7.305c-4.668,0.631-7.936,4.932-7.305,9.6
				C21.334,139.197,39.314,164.703,71.945,186.216z"/>
			<path d="M470.375,179.261c-4.634-0.529-8.934,2.748-9.515,7.432c-3.2,26.104-14.199,41.489-37.939,53.112
				c-31.795,15.556-55.723,16.188-56.107,16.196c-4.702,0.068-8.465,3.925-8.414,8.627c0.051,4.685,3.866,8.44,8.533,8.44h0.094
				c1.126-0.009,27.793-0.512,63.386-17.937c28.877-14.123,43.494-34.594,47.394-66.355
				C478.379,184.099,475.051,179.841,470.375,179.261z"/>
			<path d="M487.553,98.749c-4.676-0.657-8.969,2.628-9.609,7.305c-3.541,26.035-18.611,47.01-47.599,66.133
				c-14.925,10.325-31.795,11.802-32.29,11.836c-4.685,0.333-8.226,4.412-7.902,9.105c0.316,4.497,4.062,7.945,8.508,7.945
				c0.196,0,0.401-0.008,0.597-0.026c0.879-0.06,21.76-1.647,40.644-14.72c32.785-21.623,50.765-47.13,54.955-77.978
				C495.489,103.681,492.22,99.38,487.553,98.749z"/>
			<path d="M384.001,307.201h-85.333c-4.71,0-8.533,3.823-8.533,8.533c0,4.71,3.823,8.533,8.533,8.533h85.333
				c3.251,0,6.093,1.835,7.526,4.523L287.19,395.863c-5.299-11.989-17.263-20.395-31.189-20.395
				c-13.926,0-25.89,8.405-31.189,20.395l-104.337-67.072c1.434-2.688,4.275-4.523,7.526-4.523h85.333
				c4.71,0,8.533-3.823,8.533-8.533c0-4.71-3.823-8.533-8.533-8.533h-85.333c-14.114,0-25.6,11.486-25.6,25.6
				c0,2.901,1.476,5.606,3.925,7.177l116.045,74.607c2.44,16.452,16.512,29.15,33.63,29.15c17.118,0,31.189-12.698,33.63-29.15
				l116.053-74.607c2.441-1.57,3.917-4.275,3.917-7.177C409.601,318.687,398.115,307.201,384.001,307.201z M256.001,426.668
				c-9.412,0-17.067-7.654-17.067-17.067c0-9.412,7.654-17.067,17.067-17.067c9.412,0,17.067,7.654,17.067,17.067
				C273.067,419.014,265.413,426.668,256.001,426.668z"/>
			<path d="M507.683,1.111c-3.055-1.724-6.835-1.425-9.574,0.785c-0.845,0.674-84.727,67.806-157.611,74.948
				c-4.685,0.461-8.115,4.634-7.654,9.327c0.461,4.676,4.608,8.124,9.327,7.654c57.267-5.606,118.451-43.896,148.284-64.947
				c-13.303,46.259-44.484,69.419-68.096,83.226c-15.317,8.96-40.439,16.154-40.687,16.222c-4.54,1.289-7.168,6.007-5.879,10.539
				c1.067,3.755,4.489,6.204,8.209,6.204c0.768,0,1.553-0.102,2.33-0.324c1.109-0.316,27.435-7.851,44.646-17.911
				c30.072-17.579,71.194-48.853,80.939-117.086C512.41,6.265,510.738,2.843,507.683,1.111z"/>
			<path d="M145.067,273.068c4.659,0,8.457-3.738,8.525-8.414c0.06-4.702-3.703-8.568-8.405-8.653
				c-0.239,0-24.218-0.597-56.107-16.196c-23.74-11.622-34.739-27.008-37.939-53.112c-0.58-4.685-4.821-7.962-9.515-7.432
				c-4.676,0.58-8.004,4.838-7.432,9.515c3.9,31.761,18.517,52.233,47.394,66.355c35.593,17.425,62.259,17.929,63.386,17.937
				H145.067z"/>
			<path d="M363.572,477.177c1.092,0.469,2.236,0.691,3.362,0.691c3.311,0,6.46-1.937,7.842-5.171
				c1.86-4.335-0.154-9.353-4.48-11.204l-59.733-25.6c-4.344-1.877-9.361,0.154-11.204,4.48c-1.86,4.335,0.154,9.353,4.48,11.204
				L363.572,477.177z"/>
			<path d="M401.067,358.401c-4.71,0-8.533,3.823-8.533,8.533v119.467c0,4.702-3.831,8.533-8.533,8.533h-256
				c-4.702,0-8.533-3.831-8.533-8.533V366.935c0-4.71-3.823-8.533-8.533-8.533s-8.533,3.823-8.533,8.533v119.467
				c0,14.114,11.486,25.6,25.6,25.6h256c14.114,0,25.6-11.486,25.6-25.6V366.935C409.601,362.224,405.778,358.401,401.067,358.401z"
				/>
			<path d="M145.067,477.868c1.126,0,2.27-0.222,3.362-0.691l59.733-25.6c4.326-1.852,6.34-6.869,4.48-11.204
				c-1.852-4.326-6.869-6.349-11.204-4.48l-59.733,25.6c-4.326,1.852-6.34,6.869-4.48,11.204
				C138.608,475.931,141.756,477.868,145.067,477.868z"/>
		</g>
	</g>
</g>
<g>
</g>
<g>
</g>
<g>
</g>
<g>
</g>
<g>
</g>
<g>
</g>
<g>
</g>
<g>
</g>
<g>
</g>
<g>
</g>
<g>
</g>
<g>
</g>
<g>
</g>
<g>
</g>
<g>
</g>
</svg>
